<mxfile host="app.diagrams.net" modified="2024-07-16T16:49:51.138Z" agent="Mozilla/5.0 (Macintosh; Intel Mac OS X 10_15_7) AppleWebKit/537.36 (KHTML, like Gecko) Chrome/126.0.0.0 Safari/537.36" etag="JZZjkU-f3wO5w5lEnaF_" version="24.6.5" type="device">
  <diagram id="PBjobV1qK8d18Rz6RHWu" name="Page-1">
    <mxGraphModel dx="963" dy="753" grid="1" gridSize="10" guides="1" tooltips="1" connect="1" arrows="1" fold="1" page="1" pageScale="1" pageWidth="1100" pageHeight="850" math="0" shadow="0">
      <root>
        <mxCell id="0" />
        <mxCell id="1" parent="0" />
        <mxCell id="XskiZDpq82sz6ixhcIVA-36" value="" style="rounded=1;whiteSpace=wrap;html=1;strokeColor=#1900FF;fillColor=#FFFFFF;" parent="1" vertex="1">
          <mxGeometry x="90" y="705" width="760" height="100" as="geometry" />
        </mxCell>
        <mxCell id="6-XZHUf7CiIssY0rkYSr-54" value="" style="rounded=1;whiteSpace=wrap;html=1;fontSize=14;strokeColor=#00C414;" parent="1" vertex="1">
          <mxGeometry x="90" y="195" width="860" height="460" as="geometry" />
        </mxCell>
        <mxCell id="XskiZDpq82sz6ixhcIVA-31" value="&lt;span style=&quot;color: rgba(0 , 0 , 0 , 0) ; font-family: monospace ; font-size: 0px&quot;&gt;%3CmxGraphModel%3E%3Croot%3E%3CmxCell%20id%3D%220%22%2F%3E%3CmxCell%20id%3D%221%22%20parent%3D%220%22%2F%3E%3CmxCell%20id%3D%222%22%20value%3D%22points%22%20style%3D%22endArrow%3Dclassic%3Bhtml%3D1%3Brounded%3D0%3BexitX%3D0.75%3BexitY%3D0%3BexitDx%3D0%3BexitDy%3D0%3B%22%20edge%3D%221%22%20parent%3D%221%22%3E%3CmxGeometry%20width%3D%2250%22%20height%3D%2250%22%20relative%3D%221%22%20as%3D%22geometry%22%3E%3CmxPoint%20x%3D%22469.74%22%20y%3D%22450%22%20as%3D%22sourcePoint%22%2F%3E%3CmxPoint%20x%3D%22470.24%22%20y%3D%22370%22%20as%3D%22targetPoint%22%2F%3E%3C%2FmxGeometry%3E%3C%2FmxCell%3E%3C%2Froot%3E%3C%2FmxGraphModel%3E&lt;/span&gt;" style="rounded=1;whiteSpace=wrap;html=1;strokeColor=#99CCFF;" parent="1" vertex="1">
          <mxGeometry x="230" y="395" width="271.98" height="245" as="geometry" />
        </mxCell>
        <mxCell id="6-XZHUf7CiIssY0rkYSr-93" value="" style="rounded=1;whiteSpace=wrap;html=1;fontSize=12;strokeColor=#ECFF40;" parent="1" vertex="1">
          <mxGeometry x="90" y="45" width="860" height="100" as="geometry" />
        </mxCell>
        <mxCell id="6-XZHUf7CiIssY0rkYSr-48" value="" style="rounded=1;whiteSpace=wrap;html=1;strokeColor=#99CCFF;" parent="1" vertex="1">
          <mxGeometry x="505" y="395" width="305" height="240" as="geometry" />
        </mxCell>
        <mxCell id="6-XZHUf7CiIssY0rkYSr-1" value="Simplify" style="rounded=0;whiteSpace=wrap;html=1;" parent="1" vertex="1">
          <mxGeometry x="706" y="565" width="90" height="40" as="geometry" />
        </mxCell>
        <mxCell id="6-XZHUf7CiIssY0rkYSr-45" value="rewrites" style="edgeStyle=orthogonalEdgeStyle;rounded=0;orthogonalLoop=1;jettySize=auto;html=1;exitX=0.75;exitY=0;exitDx=0;exitDy=0;entryX=0.22;entryY=0.971;entryDx=0;entryDy=0;entryPerimeter=0;" parent="1" source="6-XZHUf7CiIssY0rkYSr-2" edge="1" target="6-XZHUf7CiIssY0rkYSr-5">
          <mxGeometry relative="1" as="geometry">
            <mxPoint x="594.5" y="485" as="targetPoint" />
          </mxGeometry>
        </mxCell>
        <mxCell id="6-XZHUf7CiIssY0rkYSr-2" value="Recursive&lt;br&gt;Rewrite" style="rounded=0;whiteSpace=wrap;html=1;" parent="1" vertex="1">
          <mxGeometry x="515" y="565" width="90" height="40" as="geometry" />
        </mxCell>
        <mxCell id="6-XZHUf7CiIssY0rkYSr-3" value="Taylor&lt;br&gt;Expand" style="rounded=0;whiteSpace=wrap;html=1;" parent="1" vertex="1">
          <mxGeometry x="610" y="565" width="90" height="40" as="geometry" />
        </mxCell>
        <mxCell id="6-XZHUf7CiIssY0rkYSr-4" value="Regime&lt;br&gt;Inference" style="rounded=0;whiteSpace=wrap;html=1;" parent="1" vertex="1">
          <mxGeometry x="850" y="445" width="90" height="40" as="geometry" />
        </mxCell>
        <mxCell id="6-XZHUf7CiIssY0rkYSr-5" value="Patch Table" style="rounded=0;whiteSpace=wrap;html=1;" parent="1" vertex="1">
          <mxGeometry x="515" y="445" width="285" height="40" as="geometry" />
        </mxCell>
        <mxCell id="6-XZHUf7CiIssY0rkYSr-6" value="Mainloop" style="rounded=0;whiteSpace=wrap;html=1;" parent="1" vertex="1">
          <mxGeometry x="260" y="325" width="515" height="40" as="geometry" />
        </mxCell>
        <mxCell id="6-XZHUf7CiIssY0rkYSr-8" value="Extraction" style="rounded=0;whiteSpace=wrap;html=1;" parent="1" vertex="1">
          <mxGeometry x="850" y="325" width="90" height="40" as="geometry" />
        </mxCell>
        <mxCell id="6-XZHUf7CiIssY0rkYSr-10" value="&lt;i&gt;binary64&lt;/i&gt;&amp;nbsp;plugin" style="rounded=0;whiteSpace=wrap;html=1;" parent="1" vertex="1">
          <mxGeometry x="365" y="75" width="100" height="40" as="geometry" />
        </mxCell>
        <mxCell id="6-XZHUf7CiIssY0rkYSr-12" value="Plugin Interface" style="rounded=0;whiteSpace=wrap;html=1;" parent="1" vertex="1">
          <mxGeometry x="505" y="215" width="130" height="40" as="geometry" />
        </mxCell>
        <mxCell id="6-XZHUf7CiIssY0rkYSr-13" value="&lt;i&gt;binary32&lt;/i&gt;&amp;nbsp;plugin" style="rounded=0;whiteSpace=wrap;html=1;" parent="1" vertex="1">
          <mxGeometry x="485" y="75" width="100" height="40" as="geometry" />
        </mxCell>
        <mxCell id="6-XZHUf7CiIssY0rkYSr-14" value="&lt;i&gt;posit&lt;/i&gt;&amp;nbsp;plugin" style="rounded=0;whiteSpace=wrap;html=1;" parent="1" vertex="1">
          <mxGeometry x="635" y="75" width="100" height="40" as="geometry" />
        </mxCell>
        <mxCell id="6-XZHUf7CiIssY0rkYSr-15" value="" style="endArrow=none;dashed=1;html=1;dashPattern=1 3;strokeWidth=2;rounded=0;" parent="1" edge="1">
          <mxGeometry width="50" height="50" relative="1" as="geometry">
            <mxPoint x="595" y="95" as="sourcePoint" />
            <mxPoint x="635" y="95" as="targetPoint" />
          </mxGeometry>
        </mxCell>
        <mxCell id="6-XZHUf7CiIssY0rkYSr-25" value="subexpr" style="endArrow=classic;html=1;rounded=0;entryX=0.389;entryY=0.01;entryDx=0;entryDy=0;entryPerimeter=0;exitX=0.712;exitY=1;exitDx=0;exitDy=0;exitPerimeter=0;" parent="1" target="6-XZHUf7CiIssY0rkYSr-5" edge="1" source="6-XZHUf7CiIssY0rkYSr-6">
          <mxGeometry width="50" height="50" relative="1" as="geometry">
            <mxPoint x="643" y="365" as="sourcePoint" />
            <mxPoint x="525" y="445" as="targetPoint" />
          </mxGeometry>
        </mxCell>
        <mxCell id="6-XZHUf7CiIssY0rkYSr-27" value="alt table" style="endArrow=classic;html=1;rounded=0;exitX=1;exitY=0.5;exitDx=0;exitDy=0;" parent="1" source="6-XZHUf7CiIssY0rkYSr-6" edge="1">
          <mxGeometry width="50" height="50" relative="1" as="geometry">
            <mxPoint x="895" y="435" as="sourcePoint" />
            <mxPoint x="850" y="345" as="targetPoint" />
            <Array as="points">
              <mxPoint x="775" y="345" />
            </Array>
          </mxGeometry>
        </mxCell>
        <mxCell id="6-XZHUf7CiIssY0rkYSr-31" value="exprs" style="endArrow=classic;html=1;rounded=0;exitX=0.25;exitY=1;exitDx=0;exitDy=0;entryX=0.25;entryY=0;entryDx=0;entryDy=0;" parent="1" source="6-XZHUf7CiIssY0rkYSr-8" target="6-XZHUf7CiIssY0rkYSr-4" edge="1">
          <mxGeometry width="50" height="50" relative="1" as="geometry">
            <mxPoint x="720" y="435" as="sourcePoint" />
            <mxPoint x="770" y="385" as="targetPoint" />
          </mxGeometry>
        </mxCell>
        <mxCell id="6-XZHUf7CiIssY0rkYSr-32" value="combined&lt;br&gt;expr" style="endArrow=classic;html=1;rounded=0;exitX=0.75;exitY=0;exitDx=0;exitDy=0;entryX=0.75;entryY=1;entryDx=0;entryDy=0;" parent="1" source="6-XZHUf7CiIssY0rkYSr-4" target="6-XZHUf7CiIssY0rkYSr-8" edge="1">
          <mxGeometry width="50" height="50" relative="1" as="geometry">
            <mxPoint x="720" y="435" as="sourcePoint" />
            <mxPoint x="770" y="385" as="targetPoint" />
          </mxGeometry>
        </mxCell>
        <mxCell id="6-XZHUf7CiIssY0rkYSr-41" value="expr" style="endArrow=classic;html=1;rounded=0;entryX=0.187;entryY=0;entryDx=0;entryDy=0;entryPerimeter=0;" parent="1" edge="1">
          <mxGeometry width="50" height="50" relative="1" as="geometry">
            <mxPoint x="630.17" y="485" as="sourcePoint" />
            <mxPoint x="629.9999999999999" y="565" as="targetPoint" />
          </mxGeometry>
        </mxCell>
        <mxCell id="6-XZHUf7CiIssY0rkYSr-42" value="expanded" style="endArrow=classic;html=1;rounded=0;exitX=0.75;exitY=0;exitDx=0;exitDy=0;entryX=0.75;entryY=1;entryDx=0;entryDy=0;" parent="1" edge="1">
          <mxGeometry width="50" height="50" relative="1" as="geometry">
            <mxPoint x="680" y="565" as="sourcePoint" />
            <mxPoint x="680" y="485" as="targetPoint" />
          </mxGeometry>
        </mxCell>
        <mxCell id="6-XZHUf7CiIssY0rkYSr-43" value="expr" style="endArrow=classic;html=1;rounded=0;entryX=0.187;entryY=0;entryDx=0;entryDy=0;entryPerimeter=0;" parent="1" edge="1">
          <mxGeometry width="50" height="50" relative="1" as="geometry">
            <mxPoint x="537.6700000000001" y="485" as="sourcePoint" />
            <mxPoint x="537.5" y="565" as="targetPoint" />
          </mxGeometry>
        </mxCell>
        <mxCell id="6-XZHUf7CiIssY0rkYSr-55" value="&lt;font style=&quot;font-size: 18px&quot;&gt;Herbie&lt;/font&gt;" style="text;html=1;strokeColor=none;fillColor=none;align=center;verticalAlign=middle;whiteSpace=wrap;rounded=0;fontSize=14;fontStyle=2" parent="1" vertex="1">
          <mxGeometry x="250" y="210" width="60" height="30" as="geometry" />
        </mxCell>
        <mxCell id="6-XZHUf7CiIssY0rkYSr-63" value="" style="endArrow=classic;html=1;rounded=0;fontSize=12;exitX=0.5;exitY=0;exitDx=0;exitDy=0;" parent="1" source="6-XZHUf7CiIssY0rkYSr-8" edge="1">
          <mxGeometry width="50" height="50" relative="1" as="geometry">
            <mxPoint x="670" y="305" as="sourcePoint" />
            <mxPoint x="895" y="95" as="targetPoint" />
          </mxGeometry>
        </mxCell>
        <mxCell id="6-XZHUf7CiIssY0rkYSr-64" value="output expr(s)" style="edgeLabel;html=1;align=center;verticalAlign=middle;resizable=0;points=[];fontSize=12;" parent="6-XZHUf7CiIssY0rkYSr-63" vertex="1" connectable="0">
          <mxGeometry x="0.4167" y="-1" relative="1" as="geometry">
            <mxPoint x="-1" y="8" as="offset" />
          </mxGeometry>
        </mxCell>
        <mxCell id="6-XZHUf7CiIssY0rkYSr-65" value="expr(s)" style="endArrow=classic;html=1;rounded=0;entryX=0.187;entryY=0;entryDx=0;entryDy=0;entryPerimeter=0;" parent="1" edge="1">
          <mxGeometry width="50" height="50" relative="1" as="geometry">
            <mxPoint x="726.1700000000001" y="485" as="sourcePoint" />
            <mxPoint x="726" y="565" as="targetPoint" />
          </mxGeometry>
        </mxCell>
        <mxCell id="6-XZHUf7CiIssY0rkYSr-68" value="simpler" style="endArrow=classic;html=1;rounded=0;exitX=0.75;exitY=0;exitDx=0;exitDy=0;entryX=0.75;entryY=1;entryDx=0;entryDy=0;" parent="1" edge="1">
          <mxGeometry width="50" height="50" relative="1" as="geometry">
            <mxPoint x="776" y="565" as="sourcePoint" />
            <mxPoint x="776" y="485" as="targetPoint" />
          </mxGeometry>
        </mxCell>
        <mxCell id="6-XZHUf7CiIssY0rkYSr-70" value="Evaluate" style="rounded=0;whiteSpace=wrap;html=1;" parent="1" vertex="1">
          <mxGeometry x="250" y="565" width="90" height="40" as="geometry" />
        </mxCell>
        <mxCell id="6-XZHUf7CiIssY0rkYSr-72" value="request&lt;br&gt;implementation" style="endArrow=classic;html=1;rounded=0;fontSize=12;entryX=0.156;entryY=1.031;entryDx=0;entryDy=0;entryPerimeter=0;exitX=0.516;exitY=0.019;exitDx=0;exitDy=0;exitPerimeter=0;" parent="1" source="6-XZHUf7CiIssY0rkYSr-6" target="6-XZHUf7CiIssY0rkYSr-12" edge="1">
          <mxGeometry width="50" height="50" relative="1" as="geometry">
            <mxPoint x="525" y="320" as="sourcePoint" />
            <mxPoint x="541" y="245" as="targetPoint" />
          </mxGeometry>
        </mxCell>
        <mxCell id="6-XZHUf7CiIssY0rkYSr-73" value="" style="endArrow=classic;html=1;rounded=0;fontSize=12;exitX=0.812;exitY=1.031;exitDx=0;exitDy=0;exitPerimeter=0;" parent="1" source="6-XZHUf7CiIssY0rkYSr-12" edge="1">
          <mxGeometry width="50" height="50" relative="1" as="geometry">
            <mxPoint x="600" y="245" as="sourcePoint" />
            <mxPoint x="611" y="325" as="targetPoint" />
          </mxGeometry>
        </mxCell>
        <mxCell id="6-XZHUf7CiIssY0rkYSr-74" value="operators,&lt;br&gt;rules,&lt;br&gt;representations" style="edgeLabel;html=1;align=center;verticalAlign=middle;resizable=0;points=[];fontSize=12;" parent="6-XZHUf7CiIssY0rkYSr-73" vertex="1" connectable="0">
          <mxGeometry x="-0.269" y="2" relative="1" as="geometry">
            <mxPoint y="9" as="offset" />
          </mxGeometry>
        </mxCell>
        <mxCell id="6-XZHUf7CiIssY0rkYSr-75" value="" style="endArrow=classic;html=1;rounded=0;fontSize=12;entryX=0.5;entryY=1;entryDx=0;entryDy=0;exitX=0.5;exitY=0;exitDx=0;exitDy=0;" parent="1" source="6-XZHUf7CiIssY0rkYSr-12" target="6-XZHUf7CiIssY0rkYSr-10" edge="1">
          <mxGeometry width="50" height="50" relative="1" as="geometry">
            <mxPoint x="525" y="205" as="sourcePoint" />
            <mxPoint x="575" y="155" as="targetPoint" />
          </mxGeometry>
        </mxCell>
        <mxCell id="6-XZHUf7CiIssY0rkYSr-77" value="" style="endArrow=classic;html=1;rounded=0;fontSize=12;exitX=0.5;exitY=0;exitDx=0;exitDy=0;entryX=0.5;entryY=1;entryDx=0;entryDy=0;" parent="1" source="6-XZHUf7CiIssY0rkYSr-12" target="6-XZHUf7CiIssY0rkYSr-13" edge="1">
          <mxGeometry width="50" height="50" relative="1" as="geometry">
            <mxPoint x="555" y="205" as="sourcePoint" />
            <mxPoint x="535" y="125" as="targetPoint" />
          </mxGeometry>
        </mxCell>
        <mxCell id="WfZgScI90xG1M2LBQycU-11" value="query" style="edgeLabel;html=1;align=center;verticalAlign=middle;resizable=0;points=[];" parent="6-XZHUf7CiIssY0rkYSr-77" vertex="1" connectable="0">
          <mxGeometry x="-0.2835" y="-3" relative="1" as="geometry">
            <mxPoint as="offset" />
          </mxGeometry>
        </mxCell>
        <mxCell id="6-XZHUf7CiIssY0rkYSr-78" value="" style="endArrow=classic;html=1;rounded=0;fontSize=12;entryX=0.5;entryY=1;entryDx=0;entryDy=0;exitX=0.5;exitY=0;exitDx=0;exitDy=0;" parent="1" source="6-XZHUf7CiIssY0rkYSr-12" target="6-XZHUf7CiIssY0rkYSr-14" edge="1">
          <mxGeometry width="50" height="50" relative="1" as="geometry">
            <mxPoint x="620" y="205" as="sourcePoint" />
            <mxPoint x="600" y="125" as="targetPoint" />
          </mxGeometry>
        </mxCell>
        <mxCell id="6-XZHUf7CiIssY0rkYSr-87" value="Prune" style="rounded=0;whiteSpace=wrap;html=1;" parent="1" vertex="1">
          <mxGeometry x="250" y="445" width="90" height="40" as="geometry" />
        </mxCell>
        <mxCell id="XskiZDpq82sz6ixhcIVA-1" value="&lt;font style=&quot;font-size: 14px&quot;&gt;Generate&lt;br&gt;&lt;/font&gt;" style="text;html=1;strokeColor=none;fillColor=none;align=center;verticalAlign=middle;whiteSpace=wrap;rounded=0;fontStyle=2" parent="1" vertex="1">
          <mxGeometry x="535" y="405" width="30" height="30" as="geometry" />
        </mxCell>
        <mxCell id="XskiZDpq82sz6ixhcIVA-4" value="patches" style="endArrow=classic;html=1;rounded=0;exitX=0.633;exitY=0.01;exitDx=0;exitDy=0;exitPerimeter=0;entryX=0.846;entryY=0.966;entryDx=0;entryDy=0;entryPerimeter=0;" parent="1" source="6-XZHUf7CiIssY0rkYSr-5" edge="1" target="6-XZHUf7CiIssY0rkYSr-6">
          <mxGeometry width="50" height="50" relative="1" as="geometry">
            <mxPoint x="724" y="430" as="sourcePoint" />
            <mxPoint x="724" y="365" as="targetPoint" />
          </mxGeometry>
        </mxCell>
        <mxCell id="XskiZDpq82sz6ixhcIVA-5" value="Localize" style="rounded=0;whiteSpace=wrap;html=1;" parent="1" vertex="1">
          <mxGeometry x="350" y="445" width="130" height="40" as="geometry" />
        </mxCell>
        <mxCell id="XskiZDpq82sz6ixhcIVA-7" value="Sample" style="rounded=0;whiteSpace=wrap;html=1;" parent="1" vertex="1">
          <mxGeometry x="100" y="325" width="100" height="40" as="geometry" />
        </mxCell>
        <mxCell id="XskiZDpq82sz6ixhcIVA-8" value="alt table" style="endArrow=classic;html=1;rounded=0;exitX=0.75;exitY=0;exitDx=0;exitDy=0;" parent="1" source="6-XZHUf7CiIssY0rkYSr-87" edge="1">
          <mxGeometry width="50" height="50" relative="1" as="geometry">
            <mxPoint x="330" y="595" as="sourcePoint" />
            <mxPoint x="318" y="365" as="targetPoint" />
          </mxGeometry>
        </mxCell>
        <mxCell id="XskiZDpq82sz6ixhcIVA-9" value="alts" style="endArrow=classic;html=1;rounded=0;entryX=0.25;entryY=0;entryDx=0;entryDy=0;" parent="1" target="6-XZHUf7CiIssY0rkYSr-87" edge="1">
          <mxGeometry width="50" height="50" relative="1" as="geometry">
            <mxPoint x="273" y="365" as="sourcePoint" />
            <mxPoint x="380" y="535" as="targetPoint" />
          </mxGeometry>
        </mxCell>
        <mxCell id="XskiZDpq82sz6ixhcIVA-12" value="" style="endArrow=classic;html=1;rounded=0;fontSize=12;exitX=0.5;exitY=1;exitDx=0;exitDy=0;" parent="1" edge="1">
          <mxGeometry width="50" height="50" relative="1" as="geometry">
            <mxPoint x="140" y="90" as="sourcePoint" />
            <mxPoint x="140" y="325" as="targetPoint" />
          </mxGeometry>
        </mxCell>
        <mxCell id="XskiZDpq82sz6ixhcIVA-16" value="input expr,&lt;br&gt;precondition" style="edgeLabel;html=1;align=center;verticalAlign=middle;resizable=0;points=[];" parent="XskiZDpq82sz6ixhcIVA-12" vertex="1" connectable="0">
          <mxGeometry x="-0.2913" relative="1" as="geometry">
            <mxPoint x="5" y="-3" as="offset" />
          </mxGeometry>
        </mxCell>
        <mxCell id="XskiZDpq82sz6ixhcIVA-22" value="error" style="endArrow=classic;html=1;rounded=0;exitX=0.875;exitY=-0.01;exitDx=0;exitDy=0;exitPerimeter=0;" parent="1" edge="1">
          <mxGeometry width="50" height="50" relative="1" as="geometry">
            <mxPoint x="367.5" y="734.6000000000001" as="sourcePoint" />
            <mxPoint x="370.5" y="485" as="targetPoint" />
          </mxGeometry>
        </mxCell>
        <mxCell id="XskiZDpq82sz6ixhcIVA-25" value="error" style="endArrow=classic;html=1;rounded=0;exitX=0.75;exitY=0;exitDx=0;exitDy=0;" parent="1" edge="1">
          <mxGeometry width="50" height="50" relative="1" as="geometry">
            <mxPoint x="294.5" y="565" as="sourcePoint" />
            <mxPoint x="295" y="485" as="targetPoint" />
          </mxGeometry>
        </mxCell>
        <mxCell id="XskiZDpq82sz6ixhcIVA-26" value="cost" style="endArrow=classic;html=1;rounded=0;exitX=0.75;exitY=0;exitDx=0;exitDy=0;" parent="1" edge="1">
          <mxGeometry width="50" height="50" relative="1" as="geometry">
            <mxPoint x="320" y="565" as="sourcePoint" />
            <mxPoint x="320.5" y="485" as="targetPoint" />
          </mxGeometry>
        </mxCell>
        <mxCell id="XskiZDpq82sz6ixhcIVA-28" value="expr" style="endArrow=classic;html=1;rounded=0;entryX=0.187;entryY=0;entryDx=0;entryDy=0;entryPerimeter=0;" parent="1" edge="1">
          <mxGeometry width="50" height="50" relative="1" as="geometry">
            <mxPoint x="269.6700000000001" y="485" as="sourcePoint" />
            <mxPoint x="269.5" y="565" as="targetPoint" />
          </mxGeometry>
        </mxCell>
        <mxCell id="XskiZDpq82sz6ixhcIVA-32" value="&lt;font style=&quot;font-size: 14px&quot;&gt;Test&lt;br&gt;&lt;/font&gt;" style="text;html=1;strokeColor=none;fillColor=none;align=center;verticalAlign=middle;whiteSpace=wrap;rounded=0;fontStyle=2" parent="1" vertex="1">
          <mxGeometry x="250" y="610" width="30" height="30" as="geometry" />
        </mxCell>
        <mxCell id="XskiZDpq82sz6ixhcIVA-37" value="&lt;font&gt;&lt;font style=&quot;font-size: 18px&quot;&gt;Libraries&lt;/font&gt;&lt;br&gt;&lt;/font&gt;" style="text;html=1;strokeColor=none;fillColor=none;align=center;verticalAlign=middle;whiteSpace=wrap;rounded=0;fontStyle=2" parent="1" vertex="1">
          <mxGeometry x="70" y="776" width="140" height="25" as="geometry" />
        </mxCell>
        <mxCell id="XskiZDpq82sz6ixhcIVA-41" value="egg" style="rounded=0;whiteSpace=wrap;html=1;" parent="1" vertex="1">
          <mxGeometry x="430" y="735" width="410" height="40" as="geometry" />
        </mxCell>
        <mxCell id="XskiZDpq82sz6ixhcIVA-43" value="&lt;span style=&quot;color: rgba(0 , 0 , 0 , 0) ; font-family: monospace ; font-size: 0px ; background-color: rgb(248 , 249 , 250)&quot;&gt;%3CmxGraphModel%3E%3Croot%3E%3CmxCell%20id%3D%220%22%2F%3E%3CmxCell%20id%3D%221%22%20parent%3D%220%22%2F%3E%3CmxCell%20id%3D%222%22%20value%3D%22extracted%22%20style%3D%22edgeLabel%3Bhtml%3D1%3Balign%3Dcenter%3BverticalAlign%3Dmiddle%3Bresizable%3D0%3Bpoints%3D%5B%5D%3BfontSize%3D12%3B%22%20vertex%3D%221%22%20connectable%3D%220%22%20parent%3D%221%22%3E%3CmxGeometry%20x%3D%22590.5%22%20y%3D%22679.6666666666667%22%20as%3D%22geometry%22%2F%3E%3C%2FmxCell%3E%3C%2Froot%3E%3C%2FmxGraphModel%3E&lt;/span&gt;" style="endArrow=classic;html=1;rounded=0;" parent="1" edge="1">
          <mxGeometry width="50" height="50" relative="1" as="geometry">
            <mxPoint x="725.6700000000001" y="605" as="sourcePoint" />
            <mxPoint x="726" y="735" as="targetPoint" />
          </mxGeometry>
        </mxCell>
        <mxCell id="uF0uv0Qmmf_ZE26efQfl-6" value="expr" style="edgeLabel;html=1;align=center;verticalAlign=middle;resizable=0;points=[];" parent="XskiZDpq82sz6ixhcIVA-43" vertex="1" connectable="0">
          <mxGeometry x="0.121" relative="1" as="geometry">
            <mxPoint as="offset" />
          </mxGeometry>
        </mxCell>
        <mxCell id="XskiZDpq82sz6ixhcIVA-44" value="" style="endArrow=classic;html=1;rounded=0;fontSize=18;entryX=0.75;entryY=1;entryDx=0;entryDy=0;exitX=0.312;exitY=-0.001;exitDx=0;exitDy=0;exitPerimeter=0;" parent="1" target="6-XZHUf7CiIssY0rkYSr-1" edge="1">
          <mxGeometry width="50" height="50" relative="1" as="geometry">
            <mxPoint x="773.0799999999999" y="734.96" as="sourcePoint" />
            <mxPoint x="791" y="575" as="targetPoint" />
          </mxGeometry>
        </mxCell>
        <mxCell id="uF0uv0Qmmf_ZE26efQfl-14" value="simplest" style="edgeLabel;html=1;align=center;verticalAlign=middle;resizable=0;points=[];" parent="XskiZDpq82sz6ixhcIVA-44" vertex="1" connectable="0">
          <mxGeometry x="-0.1252" relative="1" as="geometry">
            <mxPoint as="offset" />
          </mxGeometry>
        </mxCell>
        <mxCell id="XskiZDpq82sz6ixhcIVA-49" value="points" style="endArrow=classic;html=1;rounded=0;exitX=1;exitY=0.5;exitDx=0;exitDy=0;entryX=0;entryY=0.5;entryDx=0;entryDy=0;" parent="1" edge="1" target="6-XZHUf7CiIssY0rkYSr-6" source="XskiZDpq82sz6ixhcIVA-7">
          <mxGeometry width="50" height="50" relative="1" as="geometry">
            <mxPoint x="194.74" y="445" as="sourcePoint" />
            <mxPoint x="195.24" y="365" as="targetPoint" />
          </mxGeometry>
        </mxCell>
        <mxCell id="XskiZDpq82sz6ixhcIVA-50" value="expr,&lt;br&gt;point" style="endArrow=classic;html=1;rounded=0;entryX=0.085;entryY=-0.001;entryDx=0;entryDy=0;entryPerimeter=0;" parent="1" target="XskiZDpq82sz6ixhcIVA-52" edge="1">
          <mxGeometry width="50" height="50" relative="1" as="geometry">
            <mxPoint x="124.5" y="365" as="sourcePoint" />
            <mxPoint x="124" y="615" as="targetPoint" />
          </mxGeometry>
        </mxCell>
        <mxCell id="XskiZDpq82sz6ixhcIVA-52" value="Rival" style="rounded=0;whiteSpace=wrap;html=1;" parent="1" vertex="1">
          <mxGeometry x="100" y="735" width="310" height="40" as="geometry" />
        </mxCell>
        <mxCell id="XskiZDpq82sz6ixhcIVA-53" value="ground&lt;br&gt;truth" style="endArrow=classic;html=1;rounded=0;exitX=0.24;exitY=-0.01;exitDx=0;exitDy=0;exitPerimeter=0;" parent="1" source="XskiZDpq82sz6ixhcIVA-52" edge="1">
          <mxGeometry width="50" height="50" relative="1" as="geometry">
            <mxPoint x="174" y="615" as="sourcePoint" />
            <mxPoint x="174.24" y="365" as="targetPoint" />
          </mxGeometry>
        </mxCell>
        <mxCell id="WfZgScI90xG1M2LBQycU-13" value="&lt;font style=&quot;font-size: 18px&quot;&gt;User&lt;/font&gt;" style="text;html=1;strokeColor=none;fillColor=none;align=center;verticalAlign=middle;whiteSpace=wrap;rounded=0;fontSize=14;fontStyle=2" parent="1" vertex="1">
          <mxGeometry x="110" y="60" width="50" height="30" as="geometry" />
        </mxCell>
        <mxCell id="uF0uv0Qmmf_ZE26efQfl-15" value="&lt;span style=&quot;color: rgba(0 , 0 , 0 , 0) ; font-family: monospace ; font-size: 0px ; background-color: rgb(248 , 249 , 250)&quot;&gt;%3CmxGraphModel%3E%3Croot%3E%3CmxCell%20id%3D%220%22%2F%3E%3CmxCell%20id%3D%221%22%20parent%3D%220%22%2F%3E%3CmxCell%20id%3D%222%22%20value%3D%22extracted%22%20style%3D%22edgeLabel%3Bhtml%3D1%3Balign%3Dcenter%3BverticalAlign%3Dmiddle%3Bresizable%3D0%3Bpoints%3D%5B%5D%3BfontSize%3D12%3B%22%20vertex%3D%221%22%20connectable%3D%220%22%20parent%3D%221%22%3E%3CmxGeometry%20x%3D%22590.5%22%20y%3D%22679.6666666666667%22%20as%3D%22geometry%22%2F%3E%3C%2FmxCell%3E%3C%2Froot%3E%3C%2FmxGraphModel%3E&lt;/span&gt;" style="endArrow=classic;html=1;rounded=0;" parent="1" edge="1">
          <mxGeometry width="50" height="50" relative="1" as="geometry">
            <mxPoint x="538.59" y="605" as="sourcePoint" />
            <mxPoint x="538.92" y="735" as="targetPoint" />
          </mxGeometry>
        </mxCell>
        <mxCell id="uF0uv0Qmmf_ZE26efQfl-16" value="expr" style="edgeLabel;html=1;align=center;verticalAlign=middle;resizable=0;points=[];" parent="uF0uv0Qmmf_ZE26efQfl-15" vertex="1" connectable="0">
          <mxGeometry x="0.121" relative="1" as="geometry">
            <mxPoint as="offset" />
          </mxGeometry>
        </mxCell>
        <mxCell id="uF0uv0Qmmf_ZE26efQfl-17" value="" style="endArrow=classic;html=1;rounded=0;fontSize=18;entryX=0.75;entryY=1;entryDx=0;entryDy=0;exitX=0.312;exitY=-0.001;exitDx=0;exitDy=0;exitPerimeter=0;" parent="1" edge="1">
          <mxGeometry width="50" height="50" relative="1" as="geometry">
            <mxPoint x="581.9999999999999" y="734.96" as="sourcePoint" />
            <mxPoint x="582.42" y="605" as="targetPoint" />
          </mxGeometry>
        </mxCell>
        <mxCell id="uF0uv0Qmmf_ZE26efQfl-18" value="variants" style="edgeLabel;html=1;align=center;verticalAlign=middle;resizable=0;points=[];" parent="uF0uv0Qmmf_ZE26efQfl-17" vertex="1" connectable="0">
          <mxGeometry x="-0.1252" relative="1" as="geometry">
            <mxPoint as="offset" />
          </mxGeometry>
        </mxCell>
        <mxCell id="3g5QUApUYGK8Pu6HczJZ-2" value="alt" style="endArrow=classic;html=1;rounded=0;entryX=0.25;entryY=0;entryDx=0;entryDy=0;" edge="1" parent="1">
          <mxGeometry width="50" height="50" relative="1" as="geometry">
            <mxPoint x="410.5" y="365" as="sourcePoint" />
            <mxPoint x="410" y="445" as="targetPoint" />
          </mxGeometry>
        </mxCell>
        <mxCell id="3g5QUApUYGK8Pu6HczJZ-3" value="locations" style="endArrow=classic;html=1;rounded=0;exitX=0.75;exitY=0;exitDx=0;exitDy=0;" edge="1" parent="1">
          <mxGeometry width="50" height="50" relative="1" as="geometry">
            <mxPoint x="460" y="445" as="sourcePoint" />
            <mxPoint x="460.5" y="365" as="targetPoint" />
          </mxGeometry>
        </mxCell>
        <mxCell id="3g5QUApUYGK8Pu6HczJZ-4" value="opportunity" style="endArrow=classic;html=1;rounded=0;exitX=0.165;exitY=-0.06;exitDx=0;exitDy=0;exitPerimeter=0;" edge="1" parent="1">
          <mxGeometry x="-0.0097" width="50" height="50" relative="1" as="geometry">
            <mxPoint x="470.9499999999998" y="732.5999999999999" as="sourcePoint" />
            <mxPoint x="470.5" y="485" as="targetPoint" />
            <mxPoint as="offset" />
          </mxGeometry>
        </mxCell>
        <mxCell id="3g5QUApUYGK8Pu6HczJZ-8" value="" style="endArrow=classic;html=1;rounded=0;exitX=0.5;exitY=1;exitDx=0;exitDy=0;entryX=0.884;entryY=0.002;entryDx=0;entryDy=0;entryPerimeter=0;" edge="1" parent="1">
          <mxGeometry x="-0.004" width="50" height="50" relative="1" as="geometry">
            <mxPoint x="416.6" y="485" as="sourcePoint" />
            <mxPoint x="390.0000000000001" y="735.0800000000002" as="targetPoint" />
            <mxPoint as="offset" />
          </mxGeometry>
        </mxCell>
        <mxCell id="3g5QUApUYGK8Pu6HczJZ-5" value="subexpr" style="endArrow=classic;html=1;rounded=0;exitX=0.5;exitY=1;exitDx=0;exitDy=0;" edge="1" parent="1">
          <mxGeometry x="-0.0138" y="-12" width="50" height="50" relative="1" as="geometry">
            <mxPoint x="416.6" y="485" as="sourcePoint" />
            <mxPoint x="441.6" y="736" as="targetPoint" />
            <mxPoint as="offset" />
          </mxGeometry>
        </mxCell>
        <mxCell id="3g5QUApUYGK8Pu6HczJZ-11" value="&lt;font style=&quot;font-size: 18px&quot;&gt;User&lt;/font&gt;" style="text;html=1;strokeColor=none;fillColor=none;align=center;verticalAlign=middle;whiteSpace=wrap;rounded=0;fontSize=14;fontStyle=2" vertex="1" parent="1">
          <mxGeometry x="870" y="60" width="50" height="30" as="geometry" />
        </mxCell>
      </root>
    </mxGraphModel>
  </diagram>
</mxfile>
